<svg xmlns="http://www.w3.org/2000/svg" width="500" height="83" viewBox="0 0 500 83" version="1.1">
	<path d="M 343.680 12.976 C 327.829 17.283, 314.590 21.077, 314.259 21.407 C 313.747 21.920, 328.669 79.829, 329.581 80.869 C 329.841 81.165, 384.378 67.006, 388.666 65.529 C 390.844 64.779, 386.720 53.432, 384.419 53.843 C 382.767 54.138, 344.431 64.237, 339.880 65.576 C 338.615 65.948, 337.928 64.738, 336.749 60.056 C 335.367 54.571, 335.377 54.019, 336.869 53.593 C 337.766 53.336, 348.175 50.561, 360 47.426 C 371.825 44.292, 381.824 41.442, 382.220 41.093 C 382.834 40.553, 380.718 30.355, 379.813 29.495 C 379.553 29.248, 339.664 39.702, 333.951 41.515 C 332.490 41.979, 331.868 41.056, 330.524 36.434 C 329.621 33.327, 329.133 30.534, 329.440 30.226 C 329.747 29.919, 340.372 26.905, 353.051 23.529 C 365.730 20.152, 376.138 17.189, 376.179 16.945 C 376.388 15.722, 373.601 5.010, 373.091 5.073 C 372.766 5.113, 359.531 8.670, 343.680 12.976 M 180 15.500 L 180 20 185 20 L 190 20 190 15.500 L 190 11 185 11 L 180 11 180 15.500 M 194 15.500 L 194 20 199 20 L 204 20 204 15.500 L 204 11 199 11 L 194 11 194 15.500 M 13.354 24.092 C 8.737 25.429, 4.268 30.057, 3.466 34.329 C 1.780 43.317, 5.692 48.769, 15.817 51.537 C 25.402 54.157, 28 55.644, 28 58.509 C 28 63.665, 17.610 64.260, 10.602 59.505 L 7.078 57.113 4.020 60.975 L 0.962 64.836 3.731 66.753 C 15.790 75.097, 32.719 73.412, 37.135 63.427 C 41.136 54.383, 37.288 47.533, 26.222 43.996 C 13.147 39.818, 11.913 38.900, 14.039 34.928 C 15.433 32.322, 22.300 32.349, 27.460 34.980 C 31.717 37.150, 32.495 36.866, 35.281 32.120 C 37.052 29.103, 37.047 29.077, 34.451 27.376 C 28.961 23.779, 19.512 22.308, 13.354 24.092 M 281.655 24.401 C 272.337 27.863, 268.965 36.092, 273.280 44.841 C 274.661 47.639, 279.414 50.202, 287.530 52.525 C 296.678 55.143, 299.251 58.310, 294.777 61.443 C 291.502 63.737, 286.967 63.348, 280.868 60.250 L 275.454 57.500 272.616 60.764 C 270.225 63.514, 269.982 64.274, 271.072 65.587 C 275.670 71.127, 292.077 73.905, 298.980 70.312 C 308.771 65.215, 309.807 51.063, 300.733 46.357 C 298.955 45.435, 294.396 43.735, 290.602 42.579 C 283.126 40.301, 280.786 38.156, 282.607 35.250 C 284.279 32.582, 291.029 32.464, 296.030 35.016 C 298.320 36.184, 300.291 36.996, 300.411 36.820 C 300.530 36.644, 301.612 35.202, 302.814 33.615 C 305.962 29.461, 305.596 28.503, 299.938 26.069 C 293.320 23.222, 286.505 22.600, 281.655 24.401 M 48 48.052 L 48 72.105 53.250 71.802 L 58.500 71.500 58.768 47.750 L 59.036 24 53.518 24 L 48 24 48 48.052 M 70.232 47.750 L 70.500 71.500 87.250 71.774 L 104 72.048 104 67.024 L 104 62 92.500 62 L 81 62 81 43 L 81 24 75.482 24 L 69.964 24 70.232 47.750 M 112.232 47.750 L 112.500 71.500 117.352 71.500 L 122.204 71.500 122.056 56.750 C 121.975 48.638, 122.266 42.026, 122.704 42.057 C 123.142 42.089, 126.241 46.397, 129.591 51.631 L 135.682 61.148 142.315 50.986 L 148.947 40.825 149.223 56.162 L 149.500 71.500 154.500 71.500 L 159.500 71.500 159.768 47.750 L 160.036 24 154.102 24 L 148.167 24 142.370 33.500 C 139.182 38.725, 136.256 43, 135.869 43 C 135.482 43, 132.540 38.727, 129.332 33.505 L 123.500 24.010 117.732 24.005 L 111.964 24 112.232 47.750 M 185.401 27.583 C 184.553 29.612, 180.066 40.198, 175.430 51.108 C 170.793 62.017, 167 71.181, 167 71.471 C 167 71.762, 169.275 72, 172.055 72 L 177.110 72 179.542 66.500 L 181.975 61 191.871 61 L 201.768 61 204 66.500 L 206.232 72 211.057 72 C 213.711 72, 216.075 71.662, 216.311 71.250 C 216.547 70.838, 212.324 60.150, 206.927 47.500 L 197.114 24.500 192.028 24.197 C 187.013 23.898, 186.921 23.944, 185.401 27.583 M 228 46.561 C 216.167 74.607, 216.642 72.180, 223.060 71.805 L 228.288 71.500 230.278 66.250 L 232.268 61 242.500 61 L 252.732 61 254.727 66.250 L 256.722 71.500 261.861 71.500 C 264.687 71.500, 267.032 71.149, 267.072 70.720 C 267.111 70.290, 262.759 59.603, 257.401 46.970 L 247.658 24 242.579 24.023 L 237.500 24.046 228 46.561 M 396.232 47.750 L 396.500 71.500 401.500 71.500 L 406.500 71.500 407 56.811 L 407.500 42.123 413.379 51.061 C 416.612 55.978, 419.590 60, 419.997 60 C 420.403 60, 423.555 55.725, 427 50.500 C 430.445 45.275, 433.317 40.999, 433.382 40.999 C 433.447 40.998, 433.500 47.861, 433.500 56.249 L 433.500 71.500 438.500 71.500 L 443.500 71.500 443.768 47.750 L 444.036 24 438.268 24 L 432.500 24 426.344 34.075 L 420.189 44.150 413.997 34.075 L 407.806 24 401.885 24 L 395.964 24 396.232 47.750 M 467.090 26.198 C 466.594 27.464, 462.097 38.127, 457.095 49.893 C 452.093 61.660, 448 71.447, 448 71.643 C 448 71.840, 450.275 72, 453.055 72 L 458.110 72 460.542 66.500 L 462.975 61 472.974 61 L 482.973 61 484.476 64.750 C 487.064 71.208, 487.391 71.482, 492.938 71.805 C 499.211 72.171, 499.839 75.170, 487.642 46.500 L 478.282 24.500 473.136 24.198 C 468.553 23.928, 467.892 24.147, 467.090 26.198 M 188.735 43.793 C 185.195 52.425, 185.026 52, 192 52 C 195.300 52, 198 51.853, 198 51.672 C 198 50.879, 192.757 38.429, 192.155 37.793 C 191.787 37.404, 190.248 40.104, 188.735 43.793 M 239.694 43.293 C 236.159 52.122, 236.118 52, 242.608 52 C 249.050 52, 249.082 51.840, 244.675 41.784 L 242.387 36.564 239.694 43.293 M 470.285 42.750 C 469.072 45.913, 467.789 49.288, 467.433 50.250 C 466.861 51.798, 467.501 52, 472.976 52 C 476.381 52, 479.017 51.657, 478.833 51.237 C 478.650 50.818, 477.379 47.443, 476.009 43.737 C 474.639 40.032, 473.287 37, 473.004 37 C 472.721 37, 471.498 39.587, 470.285 42.750" stroke="none" fill="#9A5EA3" fill-rule="evenodd"/>
</svg>